<svg id="Layer_1" data-name="Layer 1" xmlns="http://www.w3.org/2000/svg" viewBox="0 0 438.36 438.36"><defs><style>.cls-1{fill:#f39554;}.cls-2{fill:#f5d37c;}</style></defs><circle class="cls-1" cx="219.18" cy="219.18" r="201.86"/><path class="cls-2" d="M298,557.39a218.55,218.55,0,1,1,85.32-17.23A217.89,217.89,0,0,1,298,557.39Zm0-403.71c-101.75,0-184.53,82.78-184.53,184.53S196.25,522.74,298,522.74,482.53,440,482.53,338.21,399.75,153.68,298,153.68Z" transform="translate(-78.82 -119.03)"/><path class="cls-2" d="M300.57,490.87c-11-3.4-22.45-5.67-32.79-10.39-35.48-16.21-58.5-44.17-72.49-79.83-2.07-5.28-4.4-7.44-10.28-7.23-13.18.48-26.39.15-40.14.15V348.91h38.44v-21.2H144.79v-44.6c13.93,0,27.39-.18,40.84.1,5,.1,7.45-1.51,9.32-6.38,14-36.35,37.31-64.8,73.36-81.13,48.13-21.82,105.47-7.6,140.53,34.49,8.49,10.19,15.39,21.69,23.49,33.25L391.48,283c-19.86-34.52-46.15-58.51-89.29-51.4-26.6,4.38-53.19,28-60.51,51.72h99.16v44.15H229.19v21.21H340.66v44.84H240.43c14.39,27.31,33.33,47.42,63.48,51.87,42,6.19,67.86-17.37,87.44-51.7l39.79,18.93c-18.82,37.48-46.53,63.76-87.46,74.93-4.59,1.25-9.25,2.25-13.88,3.37Z" transform="translate(-78.82 -119.03)"/></svg>