<svg id="Layer_1" data-name="Layer 1" xmlns="http://www.w3.org/2000/svg" viewBox="0 0 480.31 438.36"><defs><style>.cls-1{fill:#11344f;}</style></defs><path class="cls-1" d="M74.33,425.53a16.33,16.33,0,0,1-9.83-29.36C76.67,385.29,233.3,228,336.6,123.85A16.26,16.26,0,0,1,348.15,119h0a16.32,16.32,0,0,1,11.54,4.78L533.53,297.62a16.32,16.32,0,0,1-23.08,23.08L348.22,158.47C326,180.85,275,232.21,224.21,283.18c-39.49,39.65-71.12,71.31-94,94.11C116.6,390.84,106,401.38,98.59,408.62c-14,13.71-14.54,14.14-17.72,15.53A16.15,16.15,0,0,1,74.33,425.53Zm-6.61-31.25Zm0,0h0Zm0,0h0Z" transform="translate(-58 -119.03)"/><path class="cls-1" d="M456.48,557.39H208.83a16.32,16.32,0,0,1-16.32-16.32V346.79a16.32,16.32,0,1,1,32.64,0v178H362.46V409.13a16.32,16.32,0,0,1,16.32-16.32h77.7a16.32,16.32,0,0,1,16.32,16.32V541.07A16.32,16.32,0,0,1,456.48,557.39ZM395.1,524.75h45.06v-99.3H395.1Z" transform="translate(-58 -119.03)"/><path class="cls-1" d="M327.6,434.44H256.27A16.32,16.32,0,0,1,240,418.12V346.79a16.32,16.32,0,0,1,16.32-16.32H327.6a16.32,16.32,0,0,1,16.32,16.32v71.33A16.31,16.31,0,0,1,327.6,434.44Zm-55-32.64h38.69V363.12H272.59Z" transform="translate(-58 -119.03)"/></svg>