<svg id="Layer_1" data-name="Layer 1" xmlns="http://www.w3.org/2000/svg" viewBox="0 0 70.51 70.55"><defs><style>.cls-1{fill:#f39554;}.cls-2{fill:#11344f;}</style></defs><path class="cls-1" d="M332.88,421.38c0,2.64,0,5.27,0,7.91q-.06,3.65-.25,7.29a24,24,0,0,1-1.81,8.05,17.91,17.91,0,0,1-4.17,6A18.19,18.19,0,0,1,319,455a23.28,23.28,0,0,1-4.68.88c-1,.09-2.08.15-3.12.2-5.89.26-11.79.18-17.68.18q-3.06,0-6.12-.06c-1.52,0-3-.1-4.54-.18-.89-.05-1.79-.11-2.67-.22a20.69,20.69,0,0,1-9.08-3.15,17.7,17.7,0,0,1-6.81-8.37,23.38,23.38,0,0,1-1.44-5.58c-.21-1.55-.27-3.1-.34-4.66-.12-2.54-.13-5.09-.13-7.63,0-4.59,0-9.17,0-13.76,0-2.28.1-4.57.21-6.85a26,26,0,0,1,1.12-6.54,18.13,18.13,0,0,1,11.87-12.07,25.52,25.52,0,0,1,4.24-1c1.38-.19,2.76-.27,4.15-.33,5.81-.24,11.61-.17,17.42-.17,2.24,0,4.49,0,6.73.06,1.41,0,2.82.12,4.23.17a29.21,29.21,0,0,1,3.61.35,20,20,0,0,1,9,3.61,17.84,17.84,0,0,1,6.24,8.45,22.76,22.76,0,0,1,1.21,5.22c.12,1.11.2,2.23.26,3.35C333,411.72,332.89,416.55,332.88,421.38Zm-64.14-.47h0c0,1.94,0,3.88,0,5.81s0,3.57.07,5.35.09,3.47.28,5.2a18,18,0,0,0,1,4.41,11.45,11.45,0,0,0,5.73,6.31,15.91,15.91,0,0,0,5.78,1.51c1,.09,2,.16,3,.19,1.84.06,3.68.12,5.51.13,3.3,0,6.6,0,9.89,0,4.24,0,8.48,0,12.71-.26a21.36,21.36,0,0,0,3.81-.56,13,13,0,0,0,4.27-1.82,11.89,11.89,0,0,0,4.72-6.63,21.12,21.12,0,0,0,.78-4.93c.1-1.87.15-3.74.2-5.61,0-1.15,0-2.31,0-3.46,0-5.07,0-10.14-.05-15.21,0-1.89-.12-3.78-.21-5.67a17.88,17.88,0,0,0-.55-3.65,12.17,12.17,0,0,0-2.59-5.25,11.65,11.65,0,0,0-3.95-3,18.06,18.06,0,0,0-6.21-1.46c-1.41-.1-2.82-.17-4.23-.19-2.85-.05-5.69-.08-8.54-.08-5.41,0-10.83-.07-16.24.18a33.26,33.26,0,0,0-4.11.41,14.43,14.43,0,0,0-3.95,1.25,11.5,11.5,0,0,0-5.69,6.19,19,19,0,0,0-1.19,5.77c-.09,1.52-.15,3-.19,4.56,0,1.78-.05,3.57-.06,5.35S268.74,419.19,268.74,420.91Z" transform="translate(-262.38 -385.67)"/><path class="cls-2" d="M268.74,420.91c0-1.72,0-3.43,0-5.15s0-3.57.06-5.35c0-1.52.1-3,.19-4.56a19,19,0,0,1,1.19-5.77,11.5,11.5,0,0,1,5.69-6.19,14.43,14.43,0,0,1,3.95-1.25,33.26,33.26,0,0,1,4.11-.41c5.41-.25,10.83-.18,16.24-.18,2.85,0,5.69,0,8.54.08,1.41,0,2.82.09,4.23.19a18.06,18.06,0,0,1,6.21,1.46,11.65,11.65,0,0,1,3.95,3A12.17,12.17,0,0,1,325.7,402a17.88,17.88,0,0,1,.55,3.65c.09,1.89.2,3.78.21,5.67,0,5.07,0,10.14.05,15.21,0,1.15,0,2.31,0,3.46-.05,1.87-.1,3.74-.2,5.61a21.12,21.12,0,0,1-.78,4.93,11.89,11.89,0,0,1-4.72,6.63,13,13,0,0,1-4.27,1.82,21.36,21.36,0,0,1-3.81.56c-4.23.26-8.47.26-12.71.26-3.29,0-6.59,0-9.89,0-1.83,0-3.67-.07-5.51-.13-1,0-2-.1-3-.19a15.91,15.91,0,0,1-5.78-1.51,11.45,11.45,0,0,1-5.73-6.31,18,18,0,0,1-1-4.41c-.19-1.73-.24-3.46-.28-5.2s-.06-3.56-.07-5.35,0-3.87,0-5.81Zm10.77,0a18.12,18.12,0,1,0,18.07-18.13A18.11,18.11,0,0,0,279.51,421Zm37-23.07a4.24,4.24,0,1,0,4.22,4.24A4.23,4.23,0,0,0,316.47,397.89Z" transform="translate(-262.38 -385.67)"/><path class="cls-1" d="M279.51,421a18.12,18.12,0,1,1,18.16,18.1A18.11,18.11,0,0,1,279.51,421Zm6.38,0a11.74,11.74,0,1,0,11.54-11.75A11.74,11.74,0,0,0,285.89,421Z" transform="translate(-262.38 -385.67)"/><path class="cls-1" d="M316.47,397.89a4.24,4.24,0,1,1-4.26,4.23A4.19,4.19,0,0,1,316.47,397.89Z" transform="translate(-262.38 -385.67)"/><path class="cls-2" d="M285.89,421a11.74,11.74,0,1,1,11.85,11.74A11.74,11.74,0,0,1,285.89,421Z" transform="translate(-262.38 -385.67)"/></svg>