<svg id="Layer_1" data-name="Layer 1" xmlns="http://www.w3.org/2000/svg" viewBox="0 0 301.54 438.36"><defs><style>.cls-1{fill:#b06a39;}.cls-2{fill:#f39554;}</style></defs><path class="cls-1" d="M179.74,557.08a8.79,8.79,0,0,1-4.48-10.6c8-24.72,15-49.92,25.68-73.41,8.81-19.32,9.47-35.39,4.15-56.12-7.55-29.36-12.44-60.93-10.27-91,5.9-81.78,58.22-134.33,145.42-145.9,48.82-6.48,92.92-15.35,122.47-57.87h0a7.45,7.45,0,0,1,13.56,4.24c.07,15.44.22,29.79-.09,44.13-1.31,61.11-10.28,120.88-34.28,177.54C405,435.28,341.45,469.64,248.45,453.54c-5-.86-9.85-2.16-18.1-4a1.54,1.54,0,0,0-1.75.92c-14,34.78-27.81,69-41.6,103.25a5.93,5.93,0,0,1-7,3.53ZM460.12,158.22A1.51,1.51,0,0,0,458,156.8c-24.21,11.34-45.45,23.49-68.24,30.79-21.35,6.83-44.59,7.57-66.84,11.84C232,216.88,180.36,318.84,225.77,414.82a1.51,1.51,0,0,0,2.46.38c17.1-18.05,27.05-37.71,19.94-64.12-3.47-12.93-3.54-27-3.66-40.5,0-5.05,2.69-10.13,4.73-15.2a1.49,1.49,0,0,1,2.55-.37c3.9,4.85,8.78,9.49,10,14.95,3,13.3,3.89,27.06,5.9,44.14a1.51,1.51,0,0,0,2.59.86c25.22-26.83,50.25-47.18,43.35-84.87-1.23-6.71,3.2-14.45,6.17-21.93a1.5,1.5,0,0,1,2.78,0c3.1,7.52,6.26,15,9.11,22.61,1,2.72,1.31,5.7,2.09,10.24a1.51,1.51,0,0,0,2.44.91l39.82-31.85a1.5,1.5,0,0,1,1.81-.05l6,4.29a1.5,1.5,0,0,1,.43,2c-3.69,6.47-6.73,13.5-11.54,19-6.86,7.83-15,14.59-26.83,25.61a1.51,1.51,0,0,0,1,2.62c15.2-.1,24.34-.72,33.26.4,3.59.46,6.76,4.24,10,7.09a1.5,1.5,0,0,1,0,2.27c-3.26,2.87-6.36,6.58-10,7.23-7.93,1.41-16.26.6-24.43.62-33.21.08-55.06,16.4-67,50.78a1.5,1.5,0,0,0,1.44,2c5.86-.08,11.53-.46,17.09.13,12.56,1.32,25.07,3,37.59,4.68a1.5,1.5,0,0,1,.2,2.94c-11.7,3.19-23.39,6.44-35.17,9.3a48.7,48.7,0,0,1-16.21,1.54c-29.08-3.1-40.47,15.2-49.32,37.63a1.51,1.51,0,0,0,.86,2c54.2,20.76,115.93,5.38,151.28-40.8C449.36,322.3,456.79,240.77,460.12,158.22Z" transform="translate(-174.83 -119.03)"/><path class="cls-2" d="M460.21,155.76h0c-3.27,83.38-10.33,165.85-63.65,235.5-35.6,46.5-98,61.78-152.44,40.35l-.15-.36c8.91-22.95,20.2-41.93,49.77-38.78A48.7,48.7,0,0,0,310,390.93c11.48-2.78,21.37-6.13,32.18-9.32a1.7,1.7,0,0,0-.25-3.31c-11.64-1.54-22.31-3-34.55-4.29-6.11-.65-12.35-.13-18.83-.11a.28.28,0,0,1-.27-.37C300,338,322,321.17,355.78,321.09c8.17,0,16.5.79,24.43-.62,2.53-.45,4.81-2.37,7.05-4.47a5.31,5.31,0,0,0,0-7.77c-2.27-2.1-4.56-4-7.06-4.35-9.52-1.2-19.28-.41-36.41-.39a.28.28,0,0,1-.19-.48c13.14-12.32,21.83-19.43,29.13-27.76,4.06-4.64,6.87-10.38,9.86-15.95a5.5,5.5,0,0,0-1.63-7.08h0a6.54,6.54,0,0,0-7.89.21L334.61,283.2l-.45-.17c-1.08-5.72-1.3-9.17-2.46-12.28-2.66-7.09-5.58-14.08-8.48-21.08a2.18,2.18,0,0,0-4,0c-2.92,7-6.7,14.16-5.55,20.42,7.06,38.58-19.33,59-45.15,86.79l-.48-.16c-2.23-18.3-3.07-32.79-6.21-46.76-1-4.51-4.52-8.46-7.91-12.43a3.52,3.52,0,0,0-5.93.9c-1.75,4.05-3.49,8.11-3.45,12.15.12,13.54.19,27.57,3.66,40.5,7.08,26.31-2.77,45.92-19.74,63.91a1.7,1.7,0,0,1-2.78-.42c-45.2-95.91,6.38-197.71,97.24-215.14,22.25-4.27,45.49-5,66.84-11.84C413.22,180.07,435.06,167.39,460.21,155.76Z" transform="translate(-174.83 -119.03)"/></svg>