<svg id="Layer_1" data-name="Layer 1" xmlns="http://www.w3.org/2000/svg" viewBox="0 0 1846.21 1845.9"><defs><style>.cls-1{fill:#11344f;}.cls-2{fill:#f39554;}</style></defs><path class="cls-1" d="M296,1215.39c-221.57,0-443.13.77-664.7-.25C-533.29,1214.38-625,1090-625.21,868.72q-.49-574.23,0-1148.47c.21-219.66,91.34-347.73,256-348.65q664.7-3.71,1329.39-.2c169.42.77,260.11,127.09,260.28,353.31q.45,574.23,0,1148.47c-.24,214.94-92.72,341-252.22,341.88C744.15,1216.33,520.06,1215.38,296,1215.39ZM-533.26-326.42c0,412-.22,797.08.11,1182.19.14,165.61,51.06,235,173.11,235.1q656.67.63,1313.34,0c123.19-.1,174.92-68.73,175.1-232.42q.61-538.28,0-1076.54c0-28.51-2-57-3.65-100.76-29.93,34.06-50.88,56.83-71,80.93C862.34-8.1,671.4,222.48,479.54,451.67c-110.47,132-251.62,132-362.33,1.81C68,395.59,19.87,335.94-29,277.42-192.09,82-355.31-113.37-533.26-326.42Zm60.92-152.14q-1.95,15-3.89,30C-452.74-419-429.68-388.82-405.7-360Q-121.76-18.78,162.56,321.87c101.68,121.56,168.09,121.75,269.43.84Q652,60.23,870.86-203.88c68-81.92,135.28-165,220.47-269-61.26-13.24-99.2-28.44-137.18-28.58q-656-2.52-1312.08,0C-396.08-501.35-434.2-486.55-472.34-478.56Z" transform="translate(625.47 630.18)"/><path class="cls-2" d="M-533.26-326.42C-355.31-113.37-192.09,82-29,277.42,19.87,335.94,68,395.59,117.21,453.48c110.71,130.16,251.86,130.14,362.33-1.81C671.4,222.48,862.34-8.1,1053.79-237.9c20.08-24.1,41-46.87,71-80.93,1.64,43.75,3.63,72.25,3.65,100.76q.31,538.26,0,1076.54c-.18,163.69-51.91,232.32-175.1,232.42q-656.67.55-1313.34,0c-122-.12-173-69.49-173.11-235.1C-533.48,470.66-533.26,85.54-533.26-326.42Z" transform="translate(625.47 630.18)"/><path class="cls-2" d="M-472.34-478.56c38.14-8,76.26-22.79,114.41-22.93q656-2.46,1312.08,0c38,.14,75.92,15.34,137.18,28.58-85.19,104-152.45,187.08-220.47,269Q651.78,60,432,322.71c-101.34,120.91-167.75,120.72-269.43-.84Q-122-18.39-405.7-360c-24-28.82-47-59-70.53-88.58Q-474.28-463.56-472.34-478.56Z" transform="translate(625.47 630.18)"/></svg>