<svg id="Layer_1" data-name="Layer 1" xmlns="http://www.w3.org/2000/svg" viewBox="0 0 1769.65 1023.47"><defs><style>.cls-1{fill:#b06a39;}.cls-2{fill:#f39554;}.cls-3{fill:#fff;}</style></defs><path class="cls-1" d="M-1624.43-625.83a29.14,29.14,0,0,1-29.14,29.14h-334.07v700.4a29.13,29.13,0,0,1-29.13,29.14,29.13,29.13,0,0,1-29.14-29.14V-625.83A29.14,29.14,0,0,1-2016.77-655h363.2A29.14,29.14,0,0,1-1624.43-625.83Z" transform="translate(2045.91 654.97)"/><path class="cls-2" d="M-1507.88-509.09A29.14,29.14,0,0,1-1537-479.95h-334.06V220.46a29.14,29.14,0,0,1-29.14,29.13,29.14,29.14,0,0,1-29.14-29.13V-509.09a29.14,29.14,0,0,1,29.14-29.13H-1537A29.14,29.14,0,0,1-1507.88-509.09Z" transform="translate(2045.91 654.97)"/><path class="cls-1" d="M-1391.14-392.62a29.13,29.13,0,0,1-29.14,29.13h-334.06V336.92a29.14,29.14,0,0,1-29.14,29.14,29.14,29.14,0,0,1-29.13-29.14V-392.62a29.13,29.13,0,0,1,29.13-29.14h363.2A29.13,29.13,0,0,1-1391.14-392.62Z" transform="translate(2045.91 654.97)"/><path class="cls-3" d="M-1673.22,29.69l33-328c.43-4,2.85-6.28,7.26-6.93s8.14,1.64,11.22,6.93l165.66,334L-1292.39-299c2.19-4.39,5.38-6.6,9.57-6.6s6.48,2.21,6.93,6.6l19.14,215.83q12.52,145.22,34.32,187.45,2,3.3,1.65,4t-3,.66h-48.18c-4,0-6.5-.44-7.59-1.32s-1.65-3.3-1.65-7.26q0-19.14-3.63-68.32t-9.9-123.75q-6.29-74.58-9.57-120.12l-94.39,188.76q-10.56,20.47-64,133.33-4,9.23-8.58.66L-1622.4-192.07q-4.63,47.52-23.76,253.45-2,19.14,2,43.56.65,4-2.64,4h-44.88q-6.61,0-3.3-4Q-1679.83,91.08-1673.22,29.69Z" transform="translate(2045.91 654.97)"/><path class="cls-3" d="M-1075.91-202.63q0-49.5,29.7-77.55t75.91-28.05q31,0,49.83,5.27t18.81,13.21v44.88c0,3.52-1.55,3.74-4.62.66q-39.6-39.6-77.22-39.6-27.72,0-42.24,15.84t-14.53,42.24q0,50.82,50.17,118.8T-870,25.07q25.74-31,25.74-67.32,0-23.76-8.91-37.62t-32-31c-1.32-.43-2-1.54-2-3.3,0-1.32,1.09-2,3.3-2h55.44q21.12,0,21.12,47.52,0,60.08-44.88,109.57,67.32,59.4,88.44,64.68c1.75.44,2.42,1.32,2,2.64a3.82,3.82,0,0,1-2.64.66h-75.24a12.65,12.65,0,0,1-9.24-4q-6.6-5.28-38.28-31.68-54.14,40.92-135.3,40.92-55.45,0-96.37-33.33t-40.92-97.36q0-41.58,27.72-72.6t71.94-46.2Q-1075.91-170.95-1075.91-202.63Zm-30.36,188.1q0,48.86,30.69,75.57t72.94,26.74q53.46,0,97-30.36-103-93.07-145.21-172.93-27.06,13.22-41.25,40.92A129.92,129.92,0,0,0-1106.27-14.53Z" transform="translate(2045.91 654.97)"/><path class="cls-3" d="M-728.75,29.69l33-328c.44-4,2.86-6.28,7.26-6.93s8.14,1.64,11.22,6.93l165.67,334L-347.91-299c2.19-4.39,5.38-6.6,9.56-6.6s6.49,2.21,6.93,6.6l19.14,215.83Q-299.74,62-277.95,104.28q2,3.3,1.65,4t-3,.66h-48.19q-5.94,0-7.59-1.32t-1.65-7.26q0-19.14-3.63-68.32t-9.9-123.75q-6.27-74.58-9.57-120.12L-454.18-23.11q-10.56,20.47-64,133.33-4,9.23-8.58.66L-677.93-192.07q-4.62,47.52-23.76,253.45-2,19.14,2,43.56.66,4-2.64,4h-44.88q-6.6,0-3.3-4Q-735.35,91.08-728.75,29.69Z" transform="translate(2045.91 654.97)"/><path class="cls-3" d="M-1610.9,339.79c1-1,1.43-.86,1.43.29l-2.58,21.53c-.39,2.11-1.82,3.16-4.31,3.16h-79.23c-.2-.19-.2-.48,0-.86q3.43-1.73,3.44-13.78V215.2q0-17.52-8.61-26.7c-.39-.77-.19-1.15.57-1.15h53.4q23,0,32.16-1.15c1-.38,1.43-.09,1.43.86q0,2.58.72,12.92c.47,6.89.72,11.1.72,12.63.19.58.09.86-.29.86a.91.91,0,0,1-.86-.57q-1.44-1.72-4.16-4.6t-12.49-7.46a49.31,49.31,0,0,0-21.25-4.59q-15.78,0-18.94,1.15t-3.16,7.17v58.86c1.15,1.72,3.34,2.58,6.6,2.58h19.52q20.67-.57,27.85-4c.57-.57.86-.47.86.29q1.44,18.38,1.72,21.24c0,.77-.19,1.15-.57,1.15-.19,0-.48-.19-.86-.57q-4.61-2.87-15.36-6a83.76,83.76,0,0,0-23.69-3.16h-9.47a9.25,9.25,0,0,0-3.87.72,5,5,0,0,0-2.16,1.58l-.57.86v58.56q0,11.21,5,14.79t16.51,3.59a64.8,64.8,0,0,0,20.53-3Q-1621.82,349-1610.9,339.79Z" transform="translate(2045.91 654.97)"/><path class="cls-3" d="M-1511.57,268l35.6,65.46q12.63,23.53,22.68,29.28,3.15,2,.57,2h-30.14a7.42,7.42,0,0,1-1.73-.15,1.27,1.27,0,0,1-.86-.71c-.19-.39-.48-1.05-.86-2s-.77-2.11-1.15-3.45a42.91,42.91,0,0,0-2.29-5.74q-1.73-3.73-4-8.33l-31.29-60-32.16,59.72q-2.58,4.88-4,8.32a44.18,44.18,0,0,0-2.29,7.18l-.87,3.73c-.19,1-.95,1.44-2.29,1.44h-20.39c-1.72,0-1.82-.48-.28-1.44q6.88-5.16,22.68-32.73l32.73-59.42-29.86-57.13q-10.34-19.81-18.38-24.69-2.3-1.44-.57-2h26.12a8.15,8.15,0,0,1,1.73.14,1.31,1.31,0,0,1,.86.72,14.25,14.25,0,0,1,.72,2.15,30.93,30.93,0,0,0,1.15,3.45c.47,1.25,1.29,3.16,2.44,5.74s2.48,5.41,4,8.47l25.84,48.23,26.7-48.23q2.87-5.18,7.47-19c.18-1.15,1-1.72,2.29-1.72h19q2.58,0,.57,1.72-7.17,4.6-23.25,32.44Z" transform="translate(2045.91 654.97)"/><path class="cls-3" d="M-1440.66,211.46c0,.39-.25.58-.72.58s-.62-.29-.43-.86q3.43-20.67,4.3-24.12a1.36,1.36,0,0,1,1.44-1.15q8.61,1.44,32.73,1.44h76.94q22.1-.57,29-1.72c.58,0,.86.19.86.57l1.44,19.52c0,1.15-.39,1.34-1.15.58a72,72,0,0,0-5.88-4.17q-2.16-1.29-9-3a66.65,66.65,0,0,0-16.08-1.72h-28.42V324a175.68,175.68,0,0,0,2,22.54q2,14.49,3.74,17.37c.18.57.18.86,0,.86h-27c-.19,0-.19-.29,0-.86q2.29-5.18,2.3-29V197.4h-23Q-1423.73,197.4-1440.66,211.46Z" transform="translate(2045.91 654.97)"/><path class="cls-3" d="M-1182.29,339.79c1-1,1.44-.86,1.44.29l-2.59,21.53c-.38,2.11-1.82,3.16-4.3,3.16H-1267c-.19-.19-.19-.48,0-.86q3.45-1.73,3.45-13.78V215.2q0-17.52-8.62-26.7c-.38-.77-.19-1.15.58-1.15h53.4q23,0,32.15-1.15c1-.38,1.43-.09,1.43.86q0,2.58.72,12.92t.72,12.63c.19.58.09.86-.29.86a.92.92,0,0,1-.86-.57c-1-1.15-2.34-2.68-4.16-4.6s-6-4.4-12.49-7.46a49.3,49.3,0,0,0-21.24-4.59q-15.8,0-19,1.15t-3.16,7.17v58.86q1.72,2.58,6.6,2.58h19.53q20.67-.57,27.84-4c.58-.57.86-.47.86.29q1.44,18.38,1.73,21.24c0,.77-.2,1.15-.58,1.15-.19,0-.48-.19-.86-.57q-4.59-2.87-15.36-6a83.69,83.69,0,0,0-23.68-3.16h-9.48a9.29,9.29,0,0,0-3.87.72,4.91,4.91,0,0,0-2.15,1.58l-.58.86v58.56q0,11.21,5,14.79t16.51,3.59a64.8,64.8,0,0,0,20.53-3Q-1193.2,349-1182.29,339.79Z" transform="translate(2045.91 654.97)"/><path class="cls-3" d="M-1132.62,232.71v61.15q0,14.64,1.57,37.46t5,31.73c.19,1,.19,1.43,0,1.43h-19.81c-.39,0-.48-.38-.29-1.15q2.86-14.93,2.87-40.76V189.36q0-6.31,3.16-6.32c.76,0,2.11,1,4,2.87q2,3.17,31.72,36.32t59.86,66.32q30.15,33.15,31.29,34.59a20.86,20.86,0,0,0,3,3,8.91,8.91,0,0,0,2.15,1.15c.76.29,1.29-.09,1.58-1.15a22.5,22.5,0,0,0,.43-5.31V258q0-14.36-1.58-37.32t-4.73-31.87c-.39-.95-.39-1.43,0-1.43h19.8c.19,0,.29.48.29,1.43q-2.87,14.37-2.87,40.77v133.5q0,5.44-2.58,5.45-3.16,0-6-3.45l-121.44-132.63c-.38-.38-.86-.91-1.44-1.58s-1.05-1.19-1.43-1.58-.86-.81-1.44-1.29a2.56,2.56,0,0,0-1.29-.72,1.27,1.27,0,0,0-.86.43,3.68,3.68,0,0,0-.72,1.73A15.77,15.77,0,0,0-1132.62,232.71Z" transform="translate(2045.91 654.97)"/><path class="cls-3" d="M-867.94,193.38a73,73,0,0,1-1,10.33c-.67,4.41-1,6.7-1,6.89-.38,1.73-.86,2.59-1.43,2.59s-1.34-.67-2.3-2q-13.5-17.81-35.6-17.8-13.77,0-21,8.47t-7.18,20.81a33.06,33.06,0,0,0,3.73,15.5,41.64,41.64,0,0,0,9.91,12.49A155.56,155.56,0,0,0-910.28,261q7.32,5,14.64,10.76a111.21,111.21,0,0,1,13.49,12.49,51.56,51.56,0,0,1,9.91,16.36A58.92,58.92,0,0,1-868.51,322q0,19.81-12.63,32.15T-915,366.49a110.15,110.15,0,0,1-22.39-2.15q-10.33-2.16-15.65-5.17t-5.31-5.6l.86-22.39c0-1.53.38-2.3,1.15-2.3.58,0,1.15.57,1.72,1.72q12.35,25.56,38.47,25.56,14.92,0,22.83-8.76t7.89-21.39a34.16,34.16,0,0,0-6.89-20.81A77.85,77.85,0,0,0-909,288.69q-9.76-7.17-19.52-14.79a66.34,66.34,0,0,1-16.65-19.52A52.56,52.56,0,0,1-952,227.54a50.56,50.56,0,0,1,2-14.5,41.37,41.37,0,0,1,6.89-13.2q4.88-6.47,14.64-10.34t23.25-3.87a126.24,126.24,0,0,1,25.41,2.44C-871.91,189.69-867.94,191.47-867.94,193.38Z" transform="translate(2045.91 654.97)"/><path class="cls-3" d="M-809.37,225.24V326.87q0,27.86,4.88,37c.57.57.47.86-.29.86H-833.2c-.57,0-.77-.29-.57-.86q5.16-8.9,5.16-37V225q0-31.29-4.3-36.46c-.77-.77-.68-1.15.29-1.15h27.27c.57,0,.67.38.28,1.15Q-809.37,193.66-809.37,225.24Z" transform="translate(2045.91 654.97)"/><path class="cls-3" d="M-678.17,184.19q42.48,0,68,26t25.55,65.6q0,38.76-25.69,65.46t-67.89,26.69q-41.64,0-67.33-26.69t-25.69-65.46q0-39.61,25.55-65.6T-678.17,184.19Zm-21.54,12.35q-30.13,8-43.06,35.74t-3.73,62.15q8.89,33.32,34.31,51.53t55.26,9.91q30.43-8,43.35-36.32t4.31-61.87q-9.48-34.44-34.45-52T-699.71,196.54Z" transform="translate(2045.91 654.97)"/><path class="cls-3" d="M-540.95,232.71v61.15q0,14.64,1.58,37.46t5,31.73c.19,1,.19,1.43,0,1.43h-19.81c-.38,0-.47-.38-.28-1.15q2.87-14.93,2.87-40.76V189.36q0-6.31,3.16-6.32,1.14,0,4,2.87,2,3.17,31.72,36.32t59.86,66.32q30.13,33.15,31.29,34.59a20.94,20.94,0,0,0,3,3,9,9,0,0,0,2.16,1.15c.76.29,1.29-.09,1.58-1.15a23.06,23.06,0,0,0,.43-5.31V258q0-14.36-1.58-37.32t-4.74-31.87c-.39-.95-.39-1.43,0-1.43h19.81c.19,0,.29.48.29,1.43q-2.88,14.37-2.88,40.77v133.5q0,5.44-2.58,5.45-3.17,0-6-3.45L-533.48,232.42c-.39-.38-.87-.91-1.44-1.58s-1.05-1.19-1.43-1.58-.87-.81-1.44-1.29a2.64,2.64,0,0,0-1.29-.72,1.25,1.25,0,0,0-.86.43,3.68,3.68,0,0,0-.72,1.73A15.69,15.69,0,0,0-540.95,232.71Z" transform="translate(2045.91 654.97)"/><path class="cls-3" d="M-276.26,193.38a74.48,74.48,0,0,1-1,10.33c-.68,4.41-1,6.7-1,6.89-.38,1.73-.86,2.59-1.43,2.59s-1.34-.67-2.3-2q-13.5-17.81-35.6-17.8-13.78,0-21,8.47t-7.17,20.81a33.06,33.06,0,0,0,3.73,15.5,41.61,41.61,0,0,0,9.9,12.49A157.29,157.29,0,0,0-318.6,261q7.32,5,14.64,10.76a112,112,0,0,1,13.49,12.49,51.54,51.54,0,0,1,9.9,16.36A58.71,58.71,0,0,1-276.83,322q0,19.81-12.64,32.15t-33.87,12.35a110.15,110.15,0,0,1-22.39-2.15q-10.33-2.16-15.65-5.17t-5.31-5.6l.86-22.39c0-1.53.38-2.3,1.15-2.3.57,0,1.15.57,1.72,1.72q12.34,25.56,38.47,25.56,14.92,0,22.82-8.76t7.9-21.39a34.22,34.22,0,0,0-6.89-20.81,78.31,78.31,0,0,0-16.65-16.51q-9.76-7.17-19.52-14.79a66.52,66.52,0,0,1-16.66-19.52,52.65,52.65,0,0,1-6.88-26.84,50.22,50.22,0,0,1,2-14.5,41.37,41.37,0,0,1,6.89-13.2q4.88-6.47,14.64-10.34t23.25-3.87a126.38,126.38,0,0,1,25.41,2.44C-280.23,189.69-276.26,191.47-276.26,193.38Z" transform="translate(2045.91 654.97)"/></svg>