<svg id="Layer_1" data-name="Layer 1" xmlns="http://www.w3.org/2000/svg" viewBox="0 0 322.23 186.36"><defs><style>.cls-1{fill:#b06a39;}.cls-2{fill:#f39554;}.cls-3{fill:#11334f;}</style></defs><path class="cls-1" d="M213.37,333.57a5.3,5.3,0,0,1-5.3,5.31H147.24V466.41a5.31,5.31,0,1,1-10.61,0V333.57a5.3,5.3,0,0,1,5.3-5.31h66.14A5.3,5.3,0,0,1,213.37,333.57Z" transform="translate(-136.63 -328.26)"/><path class="cls-2" d="M234.6,354.83a5.3,5.3,0,0,1-5.31,5.3H168.46V487.67a5.31,5.31,0,0,1-10.61,0V354.83a5.31,5.31,0,0,1,5.31-5.31h66.13A5.31,5.31,0,0,1,234.6,354.83Z" transform="translate(-136.63 -328.26)"/><path class="cls-1" d="M255.85,376a5.3,5.3,0,0,1-5.3,5.31H189.72V508.87a5.31,5.31,0,1,1-10.61,0V376a5.3,5.3,0,0,1,5.31-5.3h66.13A5.3,5.3,0,0,1,255.85,376Z" transform="translate(-136.63 -328.26)"/><path class="cls-3" d="M204.49,452.93l6-59.73a1.36,1.36,0,0,1,1.32-1.26q1.2-.18,2,1.26L244,454l29.8-60.93a1.89,1.89,0,0,1,1.75-1.2,1.16,1.16,0,0,1,1.26,1.2l3.48,39.3q2.3,26.44,6.25,34.13.36.6.3.72t-.54.12h-8.77a2.43,2.43,0,0,1-1.38-.24q-.3-.24-.3-1.32,0-3.48-.66-12.44t-1.81-22.53q-1.14-13.57-1.74-21.87l-17.18,34.37q-1.94,3.72-11.66,24.27c-.48,1.13-1,1.16-1.56.12l-27.53-55.16q-.84,8.65-4.32,46.15a30.42,30.42,0,0,0,.36,7.93q.12.72-.48.72h-8.17c-.81,0-1-.24-.61-.72Q203.3,464.11,204.49,452.93Z" transform="translate(-136.63 -328.26)"/><path class="cls-3" d="M313.25,410.63q0-9,5.41-14.12t13.82-5.11a34.77,34.77,0,0,1,9.08,1c2.28.64,3.42,1.44,3.42,2.41v8.17q0,1-.84.12-7.22-7.21-14.06-7.21-5.06,0-7.69,2.88a10.91,10.91,0,0,0-2.65,7.69q0,9.25,9.14,21.63a167.51,167.51,0,0,0,21.87,24,18.83,18.83,0,0,0,4.69-12.26,12.49,12.49,0,0,0-1.63-6.85,24,24,0,0,0-5.82-5.65c-.24-.07-.36-.28-.36-.6s.19-.36.6-.36h10.09q3.84,0,3.85,8.66,0,10.94-8.18,20,12.27,10.81,16.11,11.77.48.12.36.48a.69.69,0,0,1-.48.12h-13.7a2.3,2.3,0,0,1-1.68-.72q-1.22-1-7-5.77-9.87,7.45-24.64,7.46a27,27,0,0,1-17.55-6.07Q298,456.17,298,444.52A19.19,19.19,0,0,1,303,431.3a30.29,30.29,0,0,1,13.1-8.41A30.35,30.35,0,0,1,313.25,410.63Zm-5.52,34.25q0,8.89,5.58,13.76a19.55,19.55,0,0,0,13.28,4.87A30.18,30.18,0,0,0,344.26,458q-18.75-17-26.44-31.49a16.32,16.32,0,0,0-7.51,7.45A23.73,23.73,0,0,0,307.73,444.88Z" transform="translate(-136.63 -328.26)"/><path class="cls-3" d="M376.47,452.93l6-59.73a1.36,1.36,0,0,1,1.32-1.26q1.2-.18,2,1.26L416,454l29.8-60.93a1.88,1.88,0,0,1,1.74-1.2,1.17,1.17,0,0,1,1.27,1.2l3.48,39.3q2.28,26.44,6.25,34.13.36.6.3.72t-.54.12h-8.77a2.47,2.47,0,0,1-1.39-.24q-.3-.24-.3-1.32,0-3.48-.66-12.44t-1.8-22.53q-1.14-13.57-1.74-21.87l-17.19,34.37q-1.92,3.72-11.66,24.27c-.48,1.13-1,1.16-1.56.12l-27.52-55.16q-.84,8.65-4.33,46.15a30.42,30.42,0,0,0,.36,7.93q.12.72-.48.72H373.1q-1.2,0-.6-.72Q375.26,464.11,376.47,452.93Z" transform="translate(-136.63 -328.26)"/><path class="cls-3" d="M215.84,509.4c.17-.18.26-.16.26.05l-.47,3.92a.68.68,0,0,1-.78.57H200.42s0-.08,0-.15c.42-.21.62-1,.62-2.51V486.71a6.86,6.86,0,0,0-1.56-4.86c-.07-.14,0-.21.1-.21h9.72a54.83,54.83,0,0,0,5.86-.21c.17-.07.26,0,.26.16s0,1.09.13,2.35.13,2,.13,2.3c0,.1,0,.16-.05.16a.18.18,0,0,1-.16-.11c-.17-.21-.42-.49-.76-.84a8.51,8.51,0,0,0-2.27-1.35,8.91,8.91,0,0,0-3.87-.84,15.37,15.37,0,0,0-3.45.21c-.38.14-.57.57-.57,1.31v10.71a1.33,1.33,0,0,0,1.2.47h3.55a14.4,14.4,0,0,0,5.07-.73c.11-.1.16-.09.16,0,.18,2.23.28,3.52.32,3.87,0,.14,0,.21-.11.21a.29.29,0,0,1-.16-.1,11.8,11.8,0,0,0-2.79-1.1,15.1,15.1,0,0,0-4.32-.58h-1.72a1.84,1.84,0,0,0-.71.13,1,1,0,0,0-.39.29l-.1.16v10.66c0,1.36.3,2.26.91,2.69a5.26,5.26,0,0,0,3,.66,10,10,0,0,0,7.37-2.77Z" transform="translate(-136.63 -328.26)"/><path class="cls-3" d="M233.93,496.33l6.48,11.92q2.29,4.28,4.13,5.33c.38.24.41.36.1.36h-5.49a1.28,1.28,0,0,1-.31,0,.26.26,0,0,1-.16-.13,3.75,3.75,0,0,1-.15-.37,4.2,4.2,0,0,1-.21-.63,8,8,0,0,0-.42-1c-.21-.45-.46-1-.73-1.52l-5.7-10.92-5.86,10.87c-.31.59-.55,1.1-.73,1.52a9,9,0,0,0-.42,1.3l-.15.68c0,.18-.18.26-.42.26h-3.71c-.32,0-.33-.08-.06-.26q1.26-.93,4.13-6l6-10.82-5.43-10.4c-1.26-2.4-2.37-3.9-3.35-4.5-.28-.17-.31-.29-.1-.36h4.75l.32,0a.23.23,0,0,1,.15.14,2.52,2.52,0,0,1,.14.39c.05.19.12.4.2.63s.24.57.45,1,.45,1,.73,1.54l4.71,8.78,4.86-8.78A23.78,23.78,0,0,0,239,482c0-.21.17-.31.41-.31h3.45c.32,0,.35.1.11.31q-1.31.84-4.24,5.91Z" transform="translate(-136.63 -328.26)"/><path class="cls-3" d="M246.84,486c0,.07-.05.1-.13.1s-.12-.05-.08-.15c.42-2.51.68-4,.78-4.39a.25.25,0,0,1,.26-.21,44.56,44.56,0,0,0,6,.26h14a51.87,51.87,0,0,0,5.28-.31c.11,0,.16,0,.16.1l.26,3.55c0,.21-.07.25-.21.11a12.51,12.51,0,0,0-1.07-.76,7,7,0,0,0-1.65-.55,12.08,12.08,0,0,0-2.93-.31h-5.17v23a31.07,31.07,0,0,0,.37,4.11,11.75,11.75,0,0,0,.68,3.16q0,.15,0,.15h-4.92s0-.05,0-.15q.42-.94.42-5.28v-25h-4.18A11.84,11.84,0,0,0,246.84,486Z" transform="translate(-136.63 -328.26)"/><path class="cls-3" d="M293.88,509.4c.18-.18.26-.16.26.05l-.47,3.92a.68.68,0,0,1-.78.57H278.46s0-.08,0-.15c.42-.21.63-1,.63-2.51V486.71a6.81,6.81,0,0,0-1.57-4.86c-.07-.14,0-.21.11-.21h9.72a54.48,54.48,0,0,0,5.85-.21c.18-.07.26,0,.26.16s.05,1.09.14,2.35.13,2,.13,2.3c0,.1,0,.16-.06.16a.16.16,0,0,1-.15-.11c-.18-.21-.43-.49-.76-.84a8.62,8.62,0,0,0-2.28-1.35,8.9,8.9,0,0,0-3.86-.84,15.25,15.25,0,0,0-3.45.21c-.39.14-.58.57-.58,1.31v10.71a1.33,1.33,0,0,0,1.2.47h3.56a14.4,14.4,0,0,0,5.07-.73c.1-.1.16-.09.16,0,.17,2.23.27,3.52.31,3.87,0,.14,0,.21-.1.21s-.09,0-.16-.1a11.91,11.91,0,0,0-2.8-1.1,15,15,0,0,0-4.31-.58h-1.73a1.78,1.78,0,0,0-.7.13,1,1,0,0,0-.39.29l-.11.16v10.66c0,1.36.31,2.26.92,2.69a5.24,5.24,0,0,0,3,.66,12,12,0,0,0,3.74-.55A11.66,11.66,0,0,0,293.88,509.4Z" transform="translate(-136.63 -328.26)"/><path class="cls-3" d="M302.93,489.9V501q0,2.67.28,6.82a22.17,22.17,0,0,0,.92,5.78c0,.18,0,.26,0,.26h-3.61c-.07,0-.09-.07,0-.21a41.08,41.08,0,0,0,.52-7.42V482c0-.76.19-1.15.58-1.15.14,0,.38.18.73.53s2.17,2.59,5.78,6.61S315.32,496,319,500.07s5.56,6.12,5.7,6.29a3.88,3.88,0,0,0,.55.55,1.47,1.47,0,0,0,.39.21c.14.06.24,0,.29-.21a4.18,4.18,0,0,0,.08-1V494.5q0-2.61-.29-6.8a25.12,25.12,0,0,0-.86-5.8c-.07-.17-.07-.26,0-.26h3.61s.05.09.05.26a40.11,40.11,0,0,0-.52,7.42v24.31c0,.66-.16,1-.47,1a1.44,1.44,0,0,1-1.1-.62l-22.11-24.15-.27-.29-.26-.29a2.1,2.1,0,0,0-.26-.23.46.46,0,0,0-.23-.14.23.23,0,0,0-.16.08.7.7,0,0,0-.13.32A2.48,2.48,0,0,0,302.93,489.9Z" transform="translate(-136.63 -328.26)"/><path class="cls-3" d="M351.12,482.74a13.54,13.54,0,0,1-.18,1.88c-.12.8-.18,1.22-.18,1.25-.07.32-.16.47-.27.47s-.24-.12-.41-.36a7.75,7.75,0,0,0-6.49-3.24,4.7,4.7,0,0,0-3.81,1.54,5.67,5.67,0,0,0-1.31,3.79,6.05,6.05,0,0,0,.68,2.82,7.8,7.8,0,0,0,1.8,2.28,29.36,29.36,0,0,0,2.46,1.88c.89.61,1.78,1.26,2.67,2a19.55,19.55,0,0,1,2.45,2.27,9.5,9.5,0,0,1,1.81,3,10.79,10.79,0,0,1,.68,3.9,7.83,7.83,0,0,1-2.3,5.85,8.45,8.45,0,0,1-6.17,2.25,20.18,20.18,0,0,1-4.08-.39,10.44,10.44,0,0,1-2.85-1c-.64-.36-1-.7-1-1l.15-4.08q0-.42.21-.42c.11,0,.21.1.32.31,1.49,3.11,3.83,4.66,7,4.66a5.3,5.3,0,0,0,4.16-1.6,5.63,5.63,0,0,0,1.43-3.89,6.18,6.18,0,0,0-1.25-3.79,14.42,14.42,0,0,0-3-3c-1.19-.87-2.37-1.77-3.56-2.69a12.28,12.28,0,0,1-3-3.55,9.57,9.57,0,0,1-1.25-4.89,9.36,9.36,0,0,1,.36-2.64,7.66,7.66,0,0,1,1.26-2.41,6,6,0,0,1,2.66-1.88,11.52,11.52,0,0,1,4.24-.7,22.72,22.72,0,0,1,4.62.44C350.4,482.07,351.12,482.39,351.12,482.74Z" transform="translate(-136.63 -328.26)"/><path class="cls-3" d="M361.79,488.54V507q0,5.07.88,6.75c.11.1.09.15-.05.15h-5.17c-.11,0-.14-.05-.11-.15q.95-1.62.94-6.75V488.49q0-5.7-.78-6.64c-.14-.14-.12-.21.05-.21h5c.1,0,.12.07.05.21Q361.79,482.8,361.79,488.54Z" transform="translate(-136.63 -328.26)"/><path class="cls-3" d="M385.68,481.06q7.72,0,12.38,4.73a16.33,16.33,0,0,1,4.66,11.95A16.54,16.54,0,0,1,398,509.66q-4.68,4.86-12.36,4.86a16.24,16.24,0,0,1-12.26-4.86,16.54,16.54,0,0,1-4.68-11.92,16.36,16.36,0,0,1,4.65-11.95Q378,481.06,385.68,481.06Zm-3.93,2.25a11.55,11.55,0,0,0-7.84,6.51,17.76,17.76,0,0,0,5.57,20.7,11.25,11.25,0,0,0,10.06,1.8,11.48,11.48,0,0,0,7.9-6.61A17.63,17.63,0,0,0,392,485,11.7,11.7,0,0,0,381.75,483.31Z" transform="translate(-136.63 -328.26)"/><path class="cls-3" d="M410.66,489.9V501q0,2.67.29,6.82a22.74,22.74,0,0,0,.91,5.78c0,.18,0,.26,0,.26h-3.6c-.07,0-.09-.07-.05-.21a42,42,0,0,0,.52-7.42V482c0-.76.19-1.15.57-1.15.14,0,.39.18.73.53s2.17,2.59,5.78,6.61,7.24,8.05,10.9,12.08,5.56,6.12,5.7,6.29a3,3,0,0,0,.55.55,1.47,1.47,0,0,0,.39.21c.14.06.23,0,.29-.21a4.18,4.18,0,0,0,.08-1V494.5q0-2.61-.29-6.8a24.44,24.44,0,0,0-.87-5.8c-.07-.17-.07-.26,0-.26h3.61s.05.09.05.26a41,41,0,0,0-.52,7.42v24.31c0,.66-.16,1-.47,1a1.45,1.45,0,0,1-1.1-.62L412,489.85l-.26-.29-.26-.29-.26-.23a.51.51,0,0,0-.24-.14.27.27,0,0,0-.16.08.83.83,0,0,0-.13.32A3.12,3.12,0,0,0,410.66,489.9Z" transform="translate(-136.63 -328.26)"/><path class="cls-3" d="M458.86,482.74a13.54,13.54,0,0,1-.18,1.88c-.13.8-.19,1.22-.19,1.25-.07.32-.15.47-.26.47s-.24-.12-.42-.36a7.75,7.75,0,0,0-6.48-3.24,4.74,4.74,0,0,0-3.82,1.54,5.66,5.66,0,0,0-1.3,3.79,5.93,5.93,0,0,0,.68,2.82,7.64,7.64,0,0,0,1.8,2.28,29.36,29.36,0,0,0,2.46,1.88c.89.61,1.78,1.26,2.66,2a19.64,19.64,0,0,1,2.46,2.27,9.3,9.3,0,0,1,1.8,3,10.58,10.58,0,0,1,.68,3.9,7.8,7.8,0,0,1-2.3,5.85,8.43,8.43,0,0,1-6.16,2.25,20,20,0,0,1-4.08-.39,10.2,10.2,0,0,1-2.85-1c-.65-.36-1-.7-1-1l.16-4.08q0-.42.21-.42c.1,0,.21.1.31.31,1.5,3.11,3.83,4.66,7,4.66a5.28,5.28,0,0,0,4.15-1.6,5.59,5.59,0,0,0,1.44-3.89,6.19,6.19,0,0,0-1.26-3.79,14,14,0,0,0-3-3c-1.18-.87-2.37-1.77-3.55-2.69a12,12,0,0,1-3-3.55,9.58,9.58,0,0,1-1.26-4.89,9,9,0,0,1,.37-2.64,7.62,7.62,0,0,1,1.25-2.41,6,6,0,0,1,2.67-1.88,11.43,11.43,0,0,1,4.23-.7,22.82,22.82,0,0,1,4.63.44C458.13,482.07,458.86,482.39,458.86,482.74Z" transform="translate(-136.63 -328.26)"/></svg>