<svg id="Layer_1" data-name="Layer 1" xmlns="http://www.w3.org/2000/svg" viewBox="0 0 70.59 70.55"><defs><style>.cls-1{fill:#f39554;}.cls-2{fill:#11344f;}</style></defs><path class="cls-1" d="M297.61,456.2c-7.28,0-14.56-.08-21.85,0a13.45,13.45,0,0,1-12.6-8.59,12.35,12.35,0,0,1-.8-4.46q0-22.18,0-44.38A12.81,12.81,0,0,1,268,388.1a12.64,12.64,0,0,1,7.77-2.43H305c5,0,10.08,0,15.12,0a12.31,12.31,0,0,1,8.44,3.38,12.49,12.49,0,0,1,4,6.42,15.25,15.25,0,0,1,.43,3.42c0,14.65,0,29.29,0,43.93a13.43,13.43,0,0,1-9.19,12.77,12.64,12.64,0,0,1-3.86.59Zm-23.5-46.94a19.31,19.31,0,0,0,.43,2.66c.43,1.55,1,3.06,1.52,4.58a35.8,35.8,0,0,0,4.88,9.38,53.31,53.31,0,0,0,7,7.89,38.77,38.77,0,0,0,10.17,7.1,84.49,84.49,0,0,0,7.9,3,11,11,0,0,0,5.09.48,17.23,17.23,0,0,0,6-2.2,7.05,7.05,0,0,0,2.61-2.36,11.6,11.6,0,0,0,1.35-4.6,2,2,0,0,0-1.24-2.33,4,4,0,0,1-.38-.24c-2-1.11-4-2.21-6-3.34-.84-.48-1.64-1-2.47-1.53a1.85,1.85,0,0,0-2.47.18c-.73.72-1.43,1.49-2.13,2.25s-1.62,1.81-2.46,2.69a1.47,1.47,0,0,1-1.87.3c-.81-.42-1.61-.85-2.41-1.3A32.18,32.18,0,0,1,288.67,422c-1.08-1.6-2.07-3.26-3-4.94-.75-1.34-.63-1.85.44-2.95.34-.35.71-.67,1.08-1,1.06-.91,2.17-1.77,3.17-2.74s1.12-1.82.3-3.13c-.32-.51-.7-1-1-1.52-.89-1.58-1.73-3.18-2.62-4.75-.58-1-1.23-2-1.85-3a1.11,1.11,0,0,0-1.09-.52,15.77,15.77,0,0,0-1.82.16,7.94,7.94,0,0,0-4.44,1.93,10.51,10.51,0,0,0-2,2.93A15.46,15.46,0,0,0,274.11,409.26Z" transform="translate(-262.34 -385.67)"/><path class="cls-2" d="M274.11,409.26a15.46,15.46,0,0,1,1.74-6.81,10.51,10.51,0,0,1,2-2.93,7.94,7.94,0,0,1,4.44-1.93,15.77,15.77,0,0,1,1.82-.16,1.11,1.11,0,0,1,1.09.52c.62,1,1.27,2,1.85,3,.89,1.57,1.73,3.17,2.62,4.75.29.53.67,1,1,1.52.82,1.31.8,2.06-.3,3.13s-2.11,1.83-3.17,2.74c-.37.32-.74.64-1.08,1-1.07,1.1-1.19,1.61-.44,2.95,1,1.68,1.94,3.34,3,4.94a32.18,32.18,0,0,0,11.07,9.93c.8.45,1.6.88,2.41,1.3a1.47,1.47,0,0,0,1.87-.3c.84-.88,1.63-1.8,2.46-2.69s1.4-1.53,2.13-2.25a1.85,1.85,0,0,1,2.47-.18c.83.49,1.63,1.05,2.47,1.53,2,1.13,4,2.23,6,3.34a4,4,0,0,0,.38.24,2,2,0,0,1,1.24,2.33,11.6,11.6,0,0,1-1.35,4.6,7.05,7.05,0,0,1-2.61,2.36,17.23,17.23,0,0,1-6,2.2,11,11,0,0,1-5.09-.48,84.49,84.49,0,0,1-7.9-3,38.77,38.77,0,0,1-10.17-7.1,53.31,53.31,0,0,1-7-7.89,35.8,35.8,0,0,1-4.88-9.38c-.52-1.52-1.09-3-1.52-4.58A19.31,19.31,0,0,1,274.11,409.26Z" transform="translate(-262.34 -385.67)"/></svg>