<svg id="Layer_1" data-name="Layer 1" xmlns="http://www.w3.org/2000/svg" viewBox="0 0 268.78 438.36"><defs><style>.cls-1{fill:#11334f;}.cls-2{fill:#f39554;}.cls-3{fill:#ef7a2c;}</style></defs><path class="cls-1" d="M350.52,259.27c0,26.26.24,52.54-.13,78.8-.1,6.92,1.68,11.41,7.32,16,38,30.91,52.31,79.08,37.52,124.33s-56.3,76.43-104.78,78.87c-47.38,2.37-93.85-29.22-110.87-75.37-16.85-45.68-2.36-98.26,36.21-127.54,8.51-6.46,11.76-12.87,11.63-23.47-.56-48.55-.42-97.11-.17-145.67.18-34.76,19.37-58.82,51.17-65.1,35.83-7.08,71.31,21.2,72,57.95C350.91,205.13,350.51,232.2,350.52,259.27Zm-26.11,8.33c0-29.46.28-58.92-.11-88.38-.23-17.42-13.19-31.08-31-34.06-14.82-2.48-31.79,7.22-36.93,22.28-2.25,6.61-2.88,14-2.92,21.08-.22,52.94-.36,105.89.09,158.83.09,9.78-2.19,15.35-11.43,20.49-35.72,19.87-51.62,62.5-39.35,101.77,11.56,37,49.67,63.86,87.3,61.52,39.43-2.44,72.41-28.91,81.76-65.6,9.79-38.46-5.24-75.95-39.88-97.66-5.94-3.73-7.69-7.69-7.62-14.29C324.61,324.92,324.44,296.26,324.41,267.6Z" transform="translate(-172.64 -119.03)"/><path class="cls-2" d="M404.83,242.44c-7.16,0-14.33.11-21.49,0-8.46-.15-13.69-4.25-13.73-13,0-8.15,5-12.65,12.71-12.86,15.51-.42,31.05-.45,46.56,0,7.73.24,12.62,4.85,12.54,13s-4.79,12.45-12.71,12.77S412.79,242.43,404.83,242.44Z" transform="translate(-172.64 -119.03)"/><path class="cls-1" d="M406.16,256.94c7.16,0,14.33-.1,21.49,0,8.46.14,13.7,4.2,13.76,13,.06,8.14-4.92,12.68-12.66,12.89q-23.26.65-46.56,0c-7.73-.23-12.63-4.84-12.59-13s4.77-12.47,12.68-12.81S398.2,257,406.16,256.94Z" transform="translate(-172.64 -119.03)"/><path class="cls-1" d="M406.16,297.55c7.16,0,14.33-.1,21.49,0,8.46.13,13.7,4.2,13.76,13,.06,8.14-4.92,12.68-12.66,12.9q-23.26.65-46.56,0c-7.73-.23-12.63-4.83-12.59-13s4.77-12.46,12.68-12.8S398.2,297.56,406.16,297.55Z" transform="translate(-172.64 -119.03)"/><path class="cls-2" d="M301.39,315.24c0,22.65.26,45.31-.14,68-.14,7.54,1.66,11.71,9.16,15.39,21.68,10.66,31.64,33.93,26,57a51.65,51.65,0,0,1-49.27,39.37c-22.45.25-42.94-15.28-49.55-37.55a49.8,49.8,0,0,1,28.19-60.14c7.67-3.32,9.61-7.34,9.55-15.06-.32-43.32-.15-86.64-.15-130,0-3.18,0-6.36,0-9.54.15-9.12,3.89-16.22,13.67-16,9.1.23,12.51,7.15,12.51,15.79q0,31,0,62Z" transform="translate(-172.64 -119.03)"/><path class="cls-3" d="M275.11,315.24" transform="translate(-172.64 -119.03)"/></svg>