<svg id="Layer_1" data-name="Layer 1" xmlns="http://www.w3.org/2000/svg" viewBox="0 0 1844.24 1845.25"><defs><style>.cls-1{fill:#f39554;}.cls-2{fill:#11344f;}</style></defs><path class="cls-1" d="M-1570.73,296.75c0,68.92.86,137.85-.25,206.75-1,63.59-3.08,127.2-6.63,190.7-4.05,72.69-18.7,143.32-47.18,210.74-25.36,60-62.3,111.78-109.22,156.85-57,54.79-124.51,90.77-199.86,113a610.9,610.9,0,0,1-122.2,23q-40.72,3.39-81.56,5.21c-154.14,6.79-308.38,4.68-462.6,4.67-53.36,0-106.73-.4-160.08-1.49-39.55-.8-79.09-2.68-118.6-4.74-23.38-1.21-46.81-2.86-70-5.78-84.92-10.68-165.58-34.54-237.43-82.48-81.68-54.51-141.79-127.08-178.15-218.77-18.67-47.08-30.76-95.8-37.5-146-5.43-40.46-7.1-81.14-9-121.85-3.06-66.51-3.46-133.07-3.49-199.62-.07-120-.39-239.9.56-359.84.47-59.78,2.67-119.58,5.61-179.3,2.87-58.09,11.75-115.36,29.34-171.06,21.65-68.55,54.94-130.34,103.89-183.55,57.25-62.22,126.1-105.9,206.38-131.92a642.89,642.89,0,0,1,111-25.18c36.05-5,72.27-7.07,108.58-8.59,151.81-6.35,303.71-4.55,455.58-4.63q88,0,175.92,1.6c36.91.71,73.79,3.15,110.69,4.51a757.34,757.34,0,0,1,94.38,9.26c85.46,14,165.64,41.62,235.5,94.3,76.14,57.42,131.12,130.7,163.08,220.95,15.71,44.37,26.75,89.8,31.69,136.57q4.61,43.68,6.87,87.61C-1568.76,44-1570.48,170.38-1570.73,296.75Z" transform="translate(3414.58 637.26)"/><path class="cls-2" d="M-2734.51,676.84V-106.11l682.29,391.17Z" transform="translate(3414.58 637.26)"/></svg>